<svg width="25" height="24" viewBox="0 0 25 24" fill="none" xmlns="http://www.w3.org/2000/svg">
<path d="M0.88286 23.1051H24.1171C24.6124 23.1051 25 22.7175 25 22.2222V2.51938C25 2.02412 24.6124 1.63652 24.1171 1.63652H19.7459V0.88286C19.7459 0.387597 19.3583 0 18.863 0C18.3678 0 17.9802 0.387597 17.9802 0.88286V1.63652H7.17054V0.88286C7.17054 0.387597 6.78295 0 6.28768 0C5.79242 0 5.40482 0.387597 5.40482 0.88286V1.63652H0.88286C0.387597 1.63652 0 2.02412 0 2.51938V22.2438C0 22.7175 0.40913 23.1051 0.88286 23.1051ZM1.76572 3.40224H5.40482V3.87597C5.40482 4.37123 5.79242 4.75883 6.28768 4.75883C6.78295 4.75883 7.17054 4.37123 7.17054 3.87597V3.40224H17.9802V3.87597C17.9802 4.37123 18.3678 4.75883 18.863 4.75883C19.3583 4.75883 19.7459 4.37123 19.7459 3.87597V3.40224H23.2558V5.68475H1.76572V3.40224ZM1.76572 7.45047H23.2343V21.3609H1.76572V7.45047Z" fill="#BDBDBD"/>
<path d="M18.8631 11.4988H6.15849C5.66323 11.4988 5.27563 11.8864 5.27563 12.3816C5.27563 12.8769 5.66323 13.2645 6.15849 13.2645H18.8631C19.3583 13.2645 19.7459 12.8769 19.7459 12.3816C19.7459 11.8864 19.3583 11.4988 18.8631 11.4988Z" fill="#BDBDBD"/>
<path d="M12.5108 15.7622H6.15849C5.66323 15.7622 5.27563 16.1498 5.27563 16.6451C5.27563 17.1403 5.66323 17.5279 6.15849 17.5279H12.5108C13.006 17.5279 13.3936 17.1403 13.3936 16.6451C13.3936 16.1498 13.006 15.7622 12.5108 15.7622Z" fill="#BDBDBD"/>
</svg>
