<svg width="20" height="21" viewBox="0 0 20 21" fill="none" xmlns="http://www.w3.org/2000/svg">
<path d="M5.86889 9.42412C5.59311 9.14834 5.14497 9.14834 4.86919 9.42412C4.59341 9.6999 4.59341 10.148 4.86919 10.4238L8.12684 13.6815C8.26473 13.8194 8.4371 13.8883 8.6267 13.8883C8.64393 13.8883 8.64393 13.8883 8.66117 13.8883C8.85077 13.8711 9.04037 13.7849 9.17826 13.6298L17.331 3.8568C17.5723 3.56378 17.5378 3.11564 17.2448 2.8571C16.9518 2.61579 16.5037 2.65026 16.2451 2.94328L8.57499 12.1302L5.86889 9.42412Z" fill="#667EEA"/>
<path d="M15.28 1.52958C11.3156 -0.952447 6.23091 -0.366414 2.92155 2.94295C-0.973849 6.83835 -0.973849 13.1985 2.92155 17.0939C4.86925 19.0416 7.43745 20.0241 9.98842 20.0241C12.5394 20.0241 15.1076 19.0416 17.0553 17.0939C20.3819 13.7673 20.9507 8.66539 18.4514 4.70105C18.2446 4.37356 17.8137 4.27014 17.4862 4.47698C17.1587 4.68381 17.0553 5.11472 17.2621 5.44221C19.4167 8.85499 18.9168 13.233 16.0556 16.0942C12.7117 19.4381 7.24785 19.4381 3.90401 16.0942C0.560179 12.7504 0.560179 7.28649 3.90401 3.94265C6.76524 1.09867 11.126 0.598817 14.5388 2.71888C14.8663 2.92571 15.2972 2.8223 15.504 2.49481C15.7109 2.16732 15.6074 1.73641 15.28 1.52958Z" fill="#667EEA"/>
</svg>
