<svg width="16" height="15" viewBox="0 0 16 15" fill="none" xmlns="http://www.w3.org/2000/svg">
<path d="M7.87686 14.8498L14.8498 7.87688C14.9402 7.78649 15.0048 7.64444 15.0048 7.5024C15.0048 7.36036 14.9402 7.21832 14.8498 7.12793L7.87686 0.154955C7.67026 -0.0516516 7.33452 -0.0516516 7.12792 0.154955C7.02461 0.258258 6.97296 0.387387 6.97296 0.529429C6.97296 0.671471 7.02461 0.800601 7.12792 0.903904L13.197 6.97297L0.529418 6.97297C0.232421 6.97297 -1.14441e-05 7.2054 -1.14441e-05 7.5024C-1.14441e-05 7.7994 0.232421 8.03183 0.529418 8.03183H13.197L7.12792 14.1009C6.92131 14.3075 6.92131 14.6432 7.12792 14.8498C7.33452 15.0565 7.67026 15.0435 7.87686 14.8498Z" fill="#BDBDBD"/>
</svg>
