<svg width="10" height="15" viewBox="0 0 10 15" fill="none" xmlns="http://www.w3.org/2000/svg">
<path d="M8.4061 0H1.71741C1.25911 0 0.899902 0.359207 0.899902 0.817506V14.1701C0.899902 14.4922 1.0857 14.777 1.38297 14.9257L1.40775 14.9381C1.50684 14.9752 1.61832 15 1.71741 15C1.94036 15 2.15093 14.9133 2.29957 14.7523L5.06175 11.9653L7.82393 14.7523C7.98496 14.9133 8.18314 14.9876 8.4061 14.9876C8.50519 14.9876 8.59189 14.9752 8.70337 14.9381H8.71576C9.02542 14.8142 9.2236 14.5169 9.2236 14.1825V0.817506C9.2236 0.359207 8.86439 0 8.4061 0ZM7.5762 1.63501V12.1883L5.63153 10.2188C5.47051 10.0578 5.27232 9.98348 5.04937 9.98348C4.82641 9.98348 4.62823 10.0702 4.4672 10.2188L2.52253 12.1883V1.63501H7.5762Z" fill="#667EEA"/>
</svg>
