<svg width="18" height="10" viewBox="0 0 18 10" fill="none" xmlns="http://www.w3.org/2000/svg">
<path d="M9 -1.1798e-07C4.60825 -1.1798e-07 0.35567 4.19072 0.185567 4.37629C0.0618556 4.5 0 4.65464 0 4.82474C0 4.99484 0.0618556 5.14948 0.185567 5.2732C0.371134 5.45876 4.60825 9.64948 9 9.64948C13.3918 9.64948 17.6443 5.45876 17.8144 5.2732C17.9381 5.14948 18 4.99484 18 4.82474C18 4.65464 17.9381 4.5 17.8144 4.37629C17.6443 4.19072 13.4072 -1.1798e-07 9 -1.1798e-07ZM9 8.36598C5.92268 8.36598 2.75258 5.86082 1.56186 4.80928C2.75258 3.75773 5.92268 1.25258 9 1.25258C12.0773 1.25258 15.2474 3.75773 16.4381 4.80928C15.2474 5.86082 12.0773 8.36598 9 8.36598Z" fill="#F2F2F2"/>
<path d="M6.72681 4.80966C6.72681 6.06223 7.74743 7.09832 9.01547 7.09832C10.2835 7.09832 11.3041 6.0777 11.3041 4.80966C11.3041 3.54161 10.2835 2.521 9.01547 2.521C7.74743 2.521 6.72681 3.55708 6.72681 4.80966ZM10.0206 4.80966C10.0206 5.36636 9.57217 5.83027 9 5.83027C8.4433 5.83027 7.97938 5.38182 7.97938 4.80966C7.97938 4.23749 8.42784 3.78904 9 3.78904C9.5567 3.8045 10.0206 4.25296 10.0206 4.80966Z" fill="#F2F2F2"/>
</svg>
